<?xml version="1.0" encoding="UTF-8" standalone="no"?>
<!-- Created with Inkscape (http://www.inkscape.org/) -->

<svg
   xmlns:dc="http://purl.org/dc/elements/1.1/"
   xmlns:cc="http://creativecommons.org/ns#"
   xmlns:rdf="http://www.w3.org/1999/02/22-rdf-syntax-ns#"
   xmlns:svg="http://www.w3.org/2000/svg"
   xmlns="http://www.w3.org/2000/svg"
   xmlns:sodipodi="http://sodipodi.sourceforge.net/DTD/sodipodi-0.dtd"
   xmlns:inkscape="http://www.inkscape.org/namespaces/inkscape"
   width="2107.9998"
   height="1037"
   viewBox="0 0 557.74158 274.37293"
   version="1.1"
   id="svg8"
   sodipodi:docname="biodose_tools_logo.svg"
   inkscape:version="0.92.2 2405546, 2018-03-11">
  <defs
     id="defs2" />
  <sodipodi:namedview
     id="base"
     pagecolor="#ffffff"
     bordercolor="#666666"
     borderopacity="1.0"
     inkscape:pageopacity="0.0"
     inkscape:pageshadow="2"
     inkscape:zoom="0.5"
     inkscape:cx="889.49884"
     inkscape:cy="208.48043"
     inkscape:document-units="px"
     inkscape:current-layer="layer1"
     showgrid="false"
     units="px"
     inkscape:window-width="2477"
     inkscape:window-height="1369"
     inkscape:window-x="83"
     inkscape:window-y="34"
     inkscape:window-maximized="1"
     inkscape:snap-bbox="true"
     inkscape:bbox-nodes="true"
     inkscape:bbox-paths="true"
     inkscape:snap-intersection-paths="true"
     fit-margin-top="0"
     fit-margin-left="0"
     fit-margin-right="0"
     fit-margin-bottom="0"
     inkscape:snap-bbox-midpoints="true"
     inkscape:snap-bbox-edge-midpoints="false"
     inkscape:snap-object-midpoints="true" />
  <metadata
     id="metadata5">
    <rdf:RDF>
      <cc:Work
         rdf:about="">
        <dc:format>image/svg+xml</dc:format>
        <dc:type
           rdf:resource="http://purl.org/dc/dcmitype/StillImage" />
        <dc:title></dc:title>
      </cc:Work>
    </rdf:RDF>
  </metadata>
  <g
     inkscape:label="Layer 1"
     inkscape:groupmode="layer"
     id="layer1"
     transform="translate(110.29597,-22.580168)">
    <g
       id="g3981"
       transform="translate(0,-13.758322)"
       inkscape:export-xdpi="96"
       inkscape:export-ydpi="96">
      <text
         id="text3943"
         y="164.16188"
         x="-113.54289"
         style="font-style:normal;font-weight:normal;font-size:51.15187073px;line-height:1.25;font-family:sans-serif;letter-spacing:0px;word-spacing:0px;fill:#000000;fill-opacity:1;stroke:none;stroke-width:1.27879667"
         xml:space="preserve"><tspan
           style="font-style:normal;font-variant:normal;font-weight:bold;font-stretch:normal;font-size:51.15166855px;font-family:Roboto;-inkscape-font-specification:'Roboto Bold';font-variant-ligatures:normal;font-variant-caps:normal;font-variant-numeric:normal;font-feature-settings:normal;text-align:start;writing-mode:lr-tb;text-anchor:start;stroke-width:1.27879667"
           y="164.16188"
           x="-113.54289"
           id="tspan3941"
           sodipodi:role="line">Biodose Tools</tspan></text>
      <g
         transform="matrix(3.5149762,0,0,3.5149762,-68.607438,-280.4412)"
         id="text3943-5"
         style="font-style:normal;font-weight:normal;font-size:31.76374054px;line-height:1.25;font-family:sans-serif;letter-spacing:0px;word-spacing:0px;fill:#000000;fill-opacity:1;stroke:none;stroke-width:0.79409355"
         aria-label="BT">
        <path
           sodipodi:nodetypes="ccscscccscccccscscccccscscc"
           inkscape:connector-curvature="0"
           id="path4518"
           style="font-style:normal;font-variant:normal;font-weight:900;font-stretch:normal;font-size:31.76362038px;font-family:Roboto;-inkscape-font-specification:'Roboto Heavy';font-variant-ligatures:normal;font-variant-caps:normal;font-variant-numeric:normal;font-feature-settings:normal;text-align:start;writing-mode:lr-tb;text-anchor:start;fill:#311b92;fill-opacity:1;stroke-width:0.79409355"
           d="M 25.342061,112.7048 V 90.122855 h 7.987443 c 2.905461,0 5.112991,0.532495 6.62259,1.597486 1.519939,1.064991 2.279909,2.61078 2.279909,4.637365 0,1.168388 -0.268833,2.166171 -0.806498,2.993349 -0.537666,0.827175 -1.328655,1.437225 -2.372966,1.830135 1.178728,0.31019 2.083453,0.88921 2.714176,1.73707 0.630723,0.84785 0.946085,1.88182 0.946085,3.10191 0,2.2127 -0.703101,3.8774 -2.109303,4.99409 -1.395863,1.10635 -3.468977,1.66986 -6.219342,1.69054 z m -5.211229,-9.60043 v 5.41285 h 14.098227 c 0.982273,0 1.737073,-0.22231 2.264399,-0.66692 0.527326,-0.45495 0.790989,-1.09084 0.790989,-1.90767 0,-1.88183 -0.935745,-2.82792 -2.807234,-2.83826 z m 0,-3.5672 h 13.369277 c 1.189068,-0.01034 2.036925,-0.227474 2.543571,-0.651403 0.506647,-0.423928 0.75997,-1.049481 0.75997,-1.876659 0,-0.951254 -0.274003,-1.633675 -0.822008,-2.047264 -0.548005,-0.423929 -1.432051,-0.635893 -2.652138,-0.635893 H 20.130832 Z" />
      </g>
    </g>
    <g
       id="g4042">
      <rect
         style="opacity:1;fill:#2ec27e;fill-opacity:1;stroke:none;stroke-width:0.6773333;stroke-linecap:round;stroke-linejoin:round;stroke-miterlimit:4;stroke-dasharray:none;stroke-dashoffset:0;stroke-opacity:1"
         id="rect4652-7"
         width="135.46666"
         height="135.46666"
         x="-110.29597"
         y="161.48642" />
      <path
         d="m -65.357493,271.55304 v -84.66659 h 29.947356 c 10.893461,0 19.170159,1.99649 24.830111,5.98947 5.698716,3.99296 8.5480679,9.7886 8.5480679,17.38688 0,4.38065 -1.0079351,8.12163 -3.0238051,11.22298 -2.0158702,3.10133 -4.9815328,5.3886 -8.8969738,6.86174 4.4194092,1.16299 7.8115028,3.33391 10.1762793,6.5128 2.3647764,3.17885 3.54715382,7.05552 3.54715382,11.63 0,8.29609 -2.63613612,14.53756 -7.90841992,18.72437 -5.2335102,4.14804 -13.0062512,6.26082 -23.3181992,6.33835 z M -84.895971,235.5581 v 20.29443 h 52.858545 c 3.682834,0 6.512816,-0.83352 8.489923,-2.50049 1.977098,-1.70574 2.965651,-4.08989 2.965651,-7.15244 0,-7.05555 -3.508392,-10.60273 -10.525175,-10.6415 z m 0,-13.37452 h 50.125481 c 4.458182,-0.0387 7.63706,-0.85286 9.536631,-2.4423 1.899572,-1.58944 2.849353,-3.93483 2.849353,-7.03617 0,-3.56655 -1.027316,-6.12514 -3.08196,-7.67582 -2.054633,-1.58944 -5.36919,-2.38415 -9.943671,-2.38415 h -49.485834 z"
         style="font-style:normal;font-variant:normal;font-weight:900;font-stretch:normal;font-size:31.76362038px;line-height:1.25;font-family:Roboto;-inkscape-font-specification:'Roboto Heavy';font-variant-ligatures:normal;font-variant-caps:normal;font-variant-numeric:normal;font-feature-settings:normal;text-align:start;letter-spacing:0px;word-spacing:0px;writing-mode:lr-tb;text-anchor:start;fill:#311b92;fill-opacity:1;stroke:none;stroke-width:2.97729826"
         id="path4518-3"
         inkscape:connector-curvature="0"
         sodipodi:nodetypes="ccscscccscccccscscccccscscc" />
    </g>
    <g
       id="g4038">
      <rect
         style="opacity:1;fill:#311b92;fill-opacity:1;stroke:none;stroke-width:0.67733324;stroke-linecap:round;stroke-linejoin:round;stroke-miterlimit:4;stroke-dasharray:none;stroke-dashoffset:0;stroke-opacity:1"
         id="rect4667-5"
         width="135.46666"
         height="135.46666"
         x="30.462366"
         y="161.48642" />
      <path
         sodipodi:nodetypes="ccscscccscccccscscccccscscc"
         inkscape:connector-curvature="0"
         id="path4022"
         style="font-style:normal;font-variant:normal;font-weight:900;font-stretch:normal;font-size:31.76362038px;line-height:1.25;font-family:Roboto;-inkscape-font-specification:'Roboto Heavy';font-variant-ligatures:normal;font-variant-caps:normal;font-variant-numeric:normal;font-feature-settings:normal;text-align:start;letter-spacing:0px;word-spacing:0px;writing-mode:lr-tb;text-anchor:start;fill:#2ec27e;fill-opacity:1;stroke:none;stroke-width:2.97729826"
         d="M 75.400843,271.55304 V 186.88645 H 105.3482 c 10.89346,0 19.17016,1.99649 24.83011,5.98947 5.69872,3.99296 8.54807,9.7886 8.54807,17.38688 0,4.38065 -1.00794,8.12163 -3.02381,11.22298 -2.01587,3.10133 -4.98153,5.3886 -8.89697,6.86174 4.41941,1.16299 7.8115,3.33391 10.17628,6.5128 2.36478,3.17885 3.54715,7.05552 3.54715,11.63 0,8.29609 -2.63613,14.53756 -7.90842,18.72437 -5.23351,4.14804 -13.00625,6.26082 -23.3182,6.33835 z M 55.862365,235.5581 v 20.29443 h 52.858545 c 3.68283,0 6.51282,-0.83352 8.48992,-2.50049 1.9771,-1.70574 2.96565,-4.08989 2.96565,-7.15244 0,-7.05555 -3.50839,-10.60273 -10.52517,-10.6415 z m 0,-13.37452 h 50.125485 c 4.45818,-0.0387 7.63706,-0.85286 9.53663,-2.4423 1.89957,-1.58944 2.84935,-3.93483 2.84935,-7.03617 0,-3.56655 -1.02732,-6.12514 -3.08196,-7.67582 -2.05463,-1.58944 -5.36919,-2.38415 -9.94367,-2.38415 H 55.862365 Z" />
    </g>
    <g
       id="g4034">
      <rect
         y="161.48642"
         x="171.2207"
         height="135.46666"
         width="135.46666"
         id="rect4675-3"
         style="opacity:1;fill:#2ec27e;fill-opacity:1;stroke:none;stroke-width:0.67733324;stroke-linecap:round;stroke-linejoin:round;stroke-miterlimit:4;stroke-dasharray:none;stroke-dashoffset:0;stroke-opacity:1" />
      <path
         d="m 216.15918,271.55304 v -84.66659 h 29.94735 c 10.89346,0 19.17016,1.99649 24.83011,5.98947 5.69872,3.99296 8.54807,9.7886 8.54807,17.38688 0,4.38065 -1.00794,8.12163 -3.02381,11.22298 -2.01587,3.10133 -4.98153,5.3886 -8.89697,6.86174 4.41941,1.16299 7.8115,3.33391 10.17628,6.5128 2.36478,3.17885 3.54715,7.05552 3.54715,11.63 0,8.29609 -2.63613,14.53756 -7.90842,18.72437 -5.23351,4.14804 -13.00625,6.26082 -23.3182,6.33835 z M 196.6207,235.5581 v 20.29443 h 52.85854 c 3.68283,0 6.51282,-0.83352 8.48992,-2.50049 1.9771,-1.70574 2.96565,-4.08989 2.96565,-7.15244 0,-7.05555 -3.50839,-10.60273 -10.52517,-10.6415 z m 0,-13.37452 h 50.12548 c 4.45818,-0.0387 7.63706,-0.85286 9.53663,-2.4423 1.89957,-1.58944 2.84935,-3.93483 2.84935,-7.03617 0,-3.56655 -1.02732,-6.12514 -3.08196,-7.67582 -2.05463,-1.58944 -5.36919,-2.38415 -9.94367,-2.38415 H 196.6207 Z"
         style="font-style:normal;font-variant:normal;font-weight:900;font-stretch:normal;font-size:31.76362038px;line-height:1.25;font-family:Roboto;-inkscape-font-specification:'Roboto Heavy';font-variant-ligatures:normal;font-variant-caps:normal;font-variant-numeric:normal;font-feature-settings:normal;text-align:start;letter-spacing:0px;word-spacing:0px;writing-mode:lr-tb;text-anchor:start;fill:#ffffff;fill-opacity:1;stroke:none;stroke-width:2.97729826"
         id="path4024"
         inkscape:connector-curvature="0"
         sodipodi:nodetypes="ccscscccscccccscscccccscscc" />
    </g>
    <g
       id="g4030">
      <rect
         y="161.48642"
         x="311.979"
         height="135.46666"
         width="135.46666"
         id="rect4665-6"
         style="opacity:1;fill:#311b92;fill-opacity:1;stroke:none;stroke-width:0.67733324;stroke-linecap:round;stroke-linejoin:round;stroke-miterlimit:4;stroke-dasharray:none;stroke-dashoffset:0;stroke-opacity:1" />
      <path
         sodipodi:nodetypes="ccscscccscccccscscccccscscc"
         inkscape:connector-curvature="0"
         id="path4026"
         style="font-style:normal;font-variant:normal;font-weight:900;font-stretch:normal;font-size:31.76362038px;line-height:1.25;font-family:Roboto;-inkscape-font-specification:'Roboto Heavy';font-variant-ligatures:normal;font-variant-caps:normal;font-variant-numeric:normal;font-feature-settings:normal;text-align:start;letter-spacing:0px;word-spacing:0px;writing-mode:lr-tb;text-anchor:start;fill:#ffffff;fill-opacity:1;stroke:none;stroke-width:2.97729826"
         d="m 356.91748,271.55304 v -84.66659 h 29.94735 c 10.89346,0 19.17016,1.99649 24.83011,5.98947 5.69872,3.99296 8.54807,9.7886 8.54807,17.38688 0,4.38065 -1.00794,8.12163 -3.02381,11.22298 -2.01587,3.10133 -4.98153,5.3886 -8.89697,6.86174 4.41941,1.16299 7.8115,3.33391 10.17628,6.5128 2.36478,3.17885 3.54715,7.05552 3.54715,11.63 0,8.29609 -2.63613,14.53756 -7.90842,18.72437 -5.23351,4.14804 -13.00625,6.26082 -23.3182,6.33835 z M 337.379,235.5581 v 20.29443 h 52.85854 c 3.68283,0 6.51282,-0.83352 8.48992,-2.50049 1.9771,-1.70574 2.96565,-4.08989 2.96565,-7.15244 0,-7.05555 -3.50839,-10.60273 -10.52517,-10.6415 z m 0,-13.37452 h 50.12548 c 4.45818,-0.0387 7.63706,-0.85286 9.53663,-2.4423 1.89957,-1.58944 2.84935,-3.93483 2.84935,-7.03617 0,-3.56655 -1.02732,-6.12514 -3.08196,-7.67582 -2.05463,-1.58944 -5.36919,-2.38415 -9.94367,-2.38415 H 337.379 Z" />
    </g>
  </g>
</svg>
