<?xml version="1.0" encoding="UTF-8" standalone="no"?>
<!-- Created with Inkscape (http://www.inkscape.org/) -->

<svg
   xmlns:dc="http://purl.org/dc/elements/1.1/"
   xmlns:cc="http://creativecommons.org/ns#"
   xmlns:rdf="http://www.w3.org/1999/02/22-rdf-syntax-ns#"
   xmlns:svg="http://www.w3.org/2000/svg"
   xmlns="http://www.w3.org/2000/svg"
   xmlns:sodipodi="http://sodipodi.sourceforge.net/DTD/sodipodi-0.dtd"
   xmlns:inkscape="http://www.inkscape.org/namespaces/inkscape"
   width="1143.5992"
   height="1100.0001"
   viewBox="0 0 302.57729 291.04171"
   version="1.1"
   id="svg8"
   sodipodi:docname="logo_biodosetools.svg"
   inkscape:version="0.92.2 2405546, 2018-03-11">
  <defs
     id="defs2" />
  <sodipodi:namedview
     id="base"
     pagecolor="#ffffff"
     bordercolor="#666666"
     borderopacity="1.0"
     inkscape:pageopacity="0.0"
     inkscape:pageshadow="2"
     inkscape:zoom="0.5"
     inkscape:cx="1545.0931"
     inkscape:cy="471.78374"
     inkscape:document-units="px"
     inkscape:current-layer="layer1"
     showgrid="false"
     units="px"
     inkscape:window-width="2477"
     inkscape:window-height="1369"
     inkscape:window-x="83"
     inkscape:window-y="34"
     inkscape:window-maximized="1"
     inkscape:snap-bbox="true"
     inkscape:bbox-nodes="true"
     inkscape:bbox-paths="true"
     inkscape:snap-intersection-paths="true"
     fit-margin-top="0"
     fit-margin-left="0"
     fit-margin-right="0"
     fit-margin-bottom="0" />
  <metadata
     id="metadata5">
    <rdf:RDF>
      <cc:Work
         rdf:about="">
        <dc:format>image/svg+xml</dc:format>
        <dc:type
           rdf:resource="http://purl.org/dc/dcmitype/StillImage" />
        <dc:title></dc:title>
      </cc:Work>
    </rdf:RDF>
  </metadata>
  <g
     inkscape:label="Layer 1"
     inkscape:groupmode="layer"
     id="layer1"
     transform="translate(110.29596,-5.9113745)">
    <g
       id="g4548"
       transform="matrix(3.4173894,0,0,3.4173894,-532.17593,-175.34059)"
       inkscape:export-xdpi="96"
       inkscape:export-ydpi="96">
      <g
         aria-label="BT"
         style="font-style:normal;font-weight:normal;font-size:31.76374054px;line-height:1.25;font-family:sans-serif;letter-spacing:0px;word-spacing:0px;fill:#2ec27e;fill-opacity:1;stroke:none;stroke-width:0.79409355"
         id="g4538"
         transform="translate(136.23734,9.3688753)">
        <path
           d="M 25.342061,112.7048 V 90.122855 h 8.111511 c 2.905461,0 5.112991,0.532495 6.62259,1.597486 1.519939,1.064991 2.279909,2.61078 2.279909,4.637365 0,1.168388 -0.268833,2.166171 -0.806498,2.993349 -0.537666,0.827175 -1.328655,1.437225 -2.372966,1.830135 1.178728,0.31019 2.083453,0.88921 2.714176,1.73707 0.630723,0.84785 0.946085,1.88182 0.946085,3.10191 0,2.2127 -0.703101,3.8774 -2.109303,4.99409 -1.395863,1.10635 -3.468977,1.66986 -6.219342,1.69054 z m -5.211229,-9.60043 v 5.41285 h 14.222295 c 0.982273,0 1.737073,-0.22231 2.264399,-0.66692 0.527326,-0.45495 0.790989,-1.09084 0.790989,-1.90767 0,-1.88183 -0.935745,-2.82792 -2.807234,-2.83826 z m 0,-3.5672 h 13.493345 c 1.189068,-0.01034 2.036925,-0.227474 2.543571,-0.651403 0.506647,-0.423928 0.75997,-1.049481 0.75997,-1.876659 0,-0.951254 -0.274003,-1.633675 -0.822008,-2.047264 -0.548005,-0.423929 -1.432051,-0.635893 -2.652138,-0.635893 h -13.32274 z"
           style="font-style:normal;font-variant:normal;font-weight:900;font-stretch:normal;font-size:31.76362038px;font-family:Roboto;-inkscape-font-specification:'Roboto Heavy';font-variant-ligatures:normal;font-variant-caps:normal;font-variant-numeric:normal;font-feature-settings:normal;text-align:start;writing-mode:lr-tb;text-anchor:start;fill:#2ec27e;fill-opacity:1;stroke-width:0.79409355"
           id="path4536"
           inkscape:connector-curvature="0"
           sodipodi:nodetypes="ccscscccscccccscscccccscscc" />
      </g>
      <text
         xml:space="preserve"
         style="font-style:normal;font-weight:normal;font-size:14.26460075px;line-height:1.25;font-family:sans-serif;letter-spacing:0px;word-spacing:0px;fill:#000000;fill-opacity:1;stroke:none;stroke-width:0.35661501"
         x="122.54549"
         y="138.06375"
         id="text4542"><tspan
           sodipodi:role="line"
           id="tspan4540"
           x="122.54549"
           y="138.06375"
           style="font-style:normal;font-variant:normal;font-weight:bold;font-stretch:normal;font-size:14.26454544px;font-family:Roboto;-inkscape-font-specification:'Roboto Bold';font-variant-ligatures:normal;font-variant-caps:normal;font-variant-numeric:normal;font-feature-settings:normal;text-align:start;writing-mode:lr-tb;text-anchor:start;stroke-width:0.35661501">Biodose Tools</tspan></text>
    </g>
    <g
       id="g4554"
       transform="matrix(3.4173894,0,0,3.4173894,-203.54753,-334.09061)"
       inkscape:export-xdpi="96"
       inkscape:export-ydpi="96">
      <text
         id="text3943"
         y="138.06375"
         x="26.381907"
         style="font-style:normal;font-weight:normal;font-size:14.26460075px;line-height:1.25;font-family:sans-serif;letter-spacing:0px;word-spacing:0px;fill:#000000;fill-opacity:1;stroke:none;stroke-width:0.35661501"
         xml:space="preserve"><tspan
           style="font-style:normal;font-variant:normal;font-weight:bold;font-stretch:normal;font-size:14.26454544px;font-family:Roboto;-inkscape-font-specification:'Roboto Bold';font-variant-ligatures:normal;font-variant-caps:normal;font-variant-numeric:normal;font-feature-settings:normal;text-align:start;writing-mode:lr-tb;text-anchor:start;stroke-width:0.35661501"
           y="138.06375"
           x="26.381907"
           id="tspan3941"
           sodipodi:role="line">Biodose Tools</tspan></text>
      <g
         transform="translate(40.073759,9.3688753)"
         id="text3943-5"
         style="font-style:normal;font-weight:normal;font-size:31.76374054px;line-height:1.25;font-family:sans-serif;letter-spacing:0px;word-spacing:0px;fill:#000000;fill-opacity:1;stroke:none;stroke-width:0.79409355"
         aria-label="BT">
        <path
           sodipodi:nodetypes="ccscscccscccccscscccccscscc"
           inkscape:connector-curvature="0"
           id="path4518"
           style="font-style:normal;font-variant:normal;font-weight:900;font-stretch:normal;font-size:31.76362038px;font-family:Roboto;-inkscape-font-specification:'Roboto Heavy';font-variant-ligatures:normal;font-variant-caps:normal;font-variant-numeric:normal;font-feature-settings:normal;text-align:start;writing-mode:lr-tb;text-anchor:start;fill:#311b92;fill-opacity:1;stroke-width:0.79409355"
           d="M 25.342061,112.7048 V 90.122855 h 8.111511 c 2.905461,0 5.112991,0.532495 6.62259,1.597486 1.519939,1.064991 2.279909,2.61078 2.279909,4.637365 0,1.168388 -0.268833,2.166171 -0.806498,2.993349 -0.537666,0.827175 -1.328655,1.437225 -2.372966,1.830135 1.178728,0.31019 2.083453,0.88921 2.714176,1.73707 0.630723,0.84785 0.946085,1.88182 0.946085,3.10191 0,2.2127 -0.703101,3.8774 -2.109303,4.99409 -1.395863,1.10635 -3.468977,1.66986 -6.219342,1.69054 z m -5.211229,-9.60043 v 5.41285 h 14.222295 c 0.982273,0 1.737073,-0.22231 2.264399,-0.66692 0.527326,-0.45495 0.790989,-1.09084 0.790989,-1.90767 0,-1.88183 -0.935745,-2.82792 -2.807234,-2.83826 z m 0,-3.5672 h 13.493345 c 1.189068,-0.01034 2.036925,-0.227474 2.543571,-0.651403 0.506647,-0.423928 0.75997,-1.049481 0.75997,-1.876659 0,-0.951254 -0.274003,-1.633675 -0.822008,-2.047264 -0.548005,-0.423929 -1.432051,-0.635893 -2.652138,-0.635893 h -13.32274 z" />
      </g>
    </g>
    <g
       id="g4705"
       transform="translate(0,5.2916667)">
      <rect
         style="opacity:1;fill:#311b92;fill-opacity:1;stroke:none;stroke-width:0.52916664;stroke-linecap:round;stroke-linejoin:round;stroke-miterlimit:4;stroke-dasharray:none;stroke-dashoffset:0;stroke-opacity:1"
         id="rect4665"
         width="105.83334"
         height="105.83334"
         x="223.55519"
         y="117.52203" />
      <g
         id="g4640"
         transform="matrix(3.4173894,0,0,3.4173894,-296.69676,-208.14892)"
         inkscape:export-xdpi="96"
         inkscape:export-ydpi="96">
        <g
           aria-label="BT"
           style="font-style:normal;font-weight:normal;font-size:31.76374054px;line-height:1.25;font-family:sans-serif;letter-spacing:0px;word-spacing:0px;fill:#2ec27e;fill-opacity:1;stroke:none;stroke-width:0.79409355"
           id="g4634"
           transform="translate(136.23734,9.3688753)">
          <path
             d="M 25.342061,112.7048 V 90.122855 h 8.111511 c 2.905461,0 5.112991,0.532495 6.62259,1.597486 1.519939,1.064991 2.279909,2.61078 2.279909,4.637365 0,1.168388 -0.268833,2.166171 -0.806498,2.993349 -0.537666,0.827175 -1.328655,1.437225 -2.372966,1.830135 1.178728,0.31019 2.083453,0.88921 2.714176,1.73707 0.630723,0.84785 0.946085,1.88182 0.946085,3.10191 0,2.2127 -0.703101,3.8774 -2.109303,4.99409 -1.395863,1.10635 -3.468977,1.66986 -6.219342,1.69054 z m -5.211229,-9.60043 v 5.41285 h 14.222295 c 0.982273,0 1.737073,-0.22231 2.264399,-0.66692 0.527326,-0.45495 0.790989,-1.09084 0.790989,-1.90767 0,-1.88183 -0.935745,-2.82792 -2.807234,-2.83826 z m 0,-3.5672 h 13.493345 c 1.189068,-0.01034 2.036925,-0.227474 2.543571,-0.651403 0.506647,-0.423928 0.75997,-1.049481 0.75997,-1.876659 0,-0.951254 -0.274003,-1.633675 -0.822008,-2.047264 -0.548005,-0.423929 -1.432051,-0.635893 -2.652138,-0.635893 h -13.32274 z"
             style="font-style:normal;font-variant:normal;font-weight:900;font-stretch:normal;font-size:31.76362038px;font-family:Roboto;-inkscape-font-specification:'Roboto Heavy';font-variant-ligatures:normal;font-variant-caps:normal;font-variant-numeric:normal;font-feature-settings:normal;text-align:start;writing-mode:lr-tb;text-anchor:start;fill:#2ec27e;fill-opacity:1;stroke-width:0.79409355"
             id="path4632"
             inkscape:connector-curvature="0"
             sodipodi:nodetypes="ccscscccscccccscscccccscscc" />
        </g>
      </g>
    </g>
    <g
       id="g4699">
      <rect
         y="11.688686"
         x="223.55519"
         height="105.83334"
         width="105.83334"
         id="rect4652"
         style="opacity:1;fill:#2ec27e;fill-opacity:1;stroke:none;stroke-width:0.52916664;stroke-linecap:round;stroke-linejoin:round;stroke-miterlimit:4;stroke-dasharray:none;stroke-dashoffset:0;stroke-opacity:1" />
      <g
         id="g4650"
         transform="matrix(3.4173894,0,0,3.4173894,31.931633,-313.98228)"
         inkscape:export-xdpi="96"
         inkscape:export-ydpi="96">
        <g
           transform="translate(40.073759,9.3688753)"
           id="g4648"
           style="font-style:normal;font-weight:normal;font-size:31.76374054px;line-height:1.25;font-family:sans-serif;letter-spacing:0px;word-spacing:0px;fill:#000000;fill-opacity:1;stroke:none;stroke-width:0.79409355"
           aria-label="BT">
          <path
             sodipodi:nodetypes="ccscscccscccccscscccccscscc"
             inkscape:connector-curvature="0"
             id="path4646"
             style="font-style:normal;font-variant:normal;font-weight:900;font-stretch:normal;font-size:31.76362038px;font-family:Roboto;-inkscape-font-specification:'Roboto Heavy';font-variant-ligatures:normal;font-variant-caps:normal;font-variant-numeric:normal;font-feature-settings:normal;text-align:start;writing-mode:lr-tb;text-anchor:start;fill:#311b92;fill-opacity:1;stroke-width:0.79409355"
             d="M 25.342061,112.7048 V 90.122855 h 8.111511 c 2.905461,0 5.112991,0.532495 6.62259,1.597486 1.519939,1.064991 2.279909,2.61078 2.279909,4.637365 0,1.168388 -0.268833,2.166171 -0.806498,2.993349 -0.537666,0.827175 -1.328655,1.437225 -2.372966,1.830135 1.178728,0.31019 2.083453,0.88921 2.714176,1.73707 0.630723,0.84785 0.946085,1.88182 0.946085,3.10191 0,2.2127 -0.703101,3.8774 -2.109303,4.99409 -1.395863,1.10635 -3.468977,1.66986 -6.219342,1.69054 z m -5.211229,-9.60043 v 5.41285 h 14.222295 c 0.982273,0 1.737073,-0.22231 2.264399,-0.66692 0.527326,-0.45495 0.790989,-1.09084 0.790989,-1.90767 0,-1.88183 -0.935745,-2.82792 -2.807234,-2.83826 z m 0,-3.5672 h 13.493345 c 1.189068,-0.01034 2.036925,-0.227474 2.543571,-0.651403 0.506647,-0.423928 0.75997,-1.049481 0.75997,-1.876659 0,-0.951254 -0.274003,-1.633675 -0.822008,-2.047264 -0.548005,-0.423929 -1.432051,-0.635893 -2.652138,-0.635893 h -13.32274 z" />
        </g>
      </g>
    </g>
    <g
       id="g4693"
       transform="translate(5.2916667)">
      <rect
         y="11.688686"
         x="329.38855"
         height="105.83334"
         width="105.83334"
         id="rect4667"
         style="opacity:1;fill:#311b92;fill-opacity:1;stroke:none;stroke-width:0.52916664;stroke-linecap:round;stroke-linejoin:round;stroke-miterlimit:4;stroke-dasharray:none;stroke-dashoffset:0;stroke-opacity:1" />
      <g
         style="fill:#ffffff"
         inkscape:export-ydpi="96"
         inkscape:export-xdpi="96"
         transform="matrix(3.4173894,0,0,3.4173894,-190.86339,-313.98227)"
         id="g4673">
        <g
           transform="translate(136.23734,9.3688753)"
           id="g4671"
           style="font-style:normal;font-weight:normal;font-size:31.76374054px;line-height:1.25;font-family:sans-serif;letter-spacing:0px;word-spacing:0px;fill:#ffffff;fill-opacity:1;stroke:none;stroke-width:0.79409355"
           aria-label="BT">
          <path
             sodipodi:nodetypes="ccscscccscccccscscccccscscc"
             inkscape:connector-curvature="0"
             id="path4669"
             style="font-style:normal;font-variant:normal;font-weight:900;font-stretch:normal;font-size:31.76362038px;font-family:Roboto;-inkscape-font-specification:'Roboto Heavy';font-variant-ligatures:normal;font-variant-caps:normal;font-variant-numeric:normal;font-feature-settings:normal;text-align:start;writing-mode:lr-tb;text-anchor:start;fill:#ffffff;fill-opacity:1;stroke-width:0.79409355"
             d="M 25.342061,112.7048 V 90.122855 h 8.111511 c 2.905461,0 5.112991,0.532495 6.62259,1.597486 1.519939,1.064991 2.279909,2.61078 2.279909,4.637365 0,1.168388 -0.268833,2.166171 -0.806498,2.993349 -0.537666,0.827175 -1.328655,1.437225 -2.372966,1.830135 1.178728,0.31019 2.083453,0.88921 2.714176,1.73707 0.630723,0.84785 0.946085,1.88182 0.946085,3.10191 0,2.2127 -0.703101,3.8774 -2.109303,4.99409 -1.395863,1.10635 -3.468977,1.66986 -6.219342,1.69054 z m -5.211229,-9.60043 v 5.41285 h 14.222295 c 0.982273,0 1.737073,-0.22231 2.264399,-0.66692 0.527326,-0.45495 0.790989,-1.09084 0.790989,-1.90767 0,-1.88183 -0.935745,-2.82792 -2.807234,-2.83826 z m 0,-3.5672 h 13.493345 c 1.189068,-0.01034 2.036925,-0.227474 2.543571,-0.651403 0.506647,-0.423928 0.75997,-1.049481 0.75997,-1.876659 0,-0.951254 -0.274003,-1.633675 -0.822008,-2.047264 -0.548005,-0.423929 -1.432051,-0.635893 -2.652138,-0.635893 h -13.32274 z" />
        </g>
      </g>
    </g>
    <g
       id="g4687"
       transform="translate(5.2916667,5.2916667)">
      <rect
         style="opacity:1;fill:#2ec27e;fill-opacity:1;stroke:none;stroke-width:0.52916664;stroke-linecap:round;stroke-linejoin:round;stroke-miterlimit:4;stroke-dasharray:none;stroke-dashoffset:0;stroke-opacity:1"
         id="rect4675"
         width="105.83334"
         height="105.83334"
         x="329.38855"
         y="117.52203" />
      <g
         style="fill:#ffffff"
         inkscape:export-ydpi="96"
         inkscape:export-xdpi="96"
         transform="matrix(3.4173894,0,0,3.4173894,137.76499,-208.14893)"
         id="g4681">
        <g
           aria-label="BT"
           style="font-style:normal;font-weight:normal;font-size:31.76374054px;line-height:1.25;font-family:sans-serif;letter-spacing:0px;word-spacing:0px;fill:#ffffff;fill-opacity:1;stroke:none;stroke-width:0.79409355"
           id="g4679"
           transform="translate(40.073759,9.3688753)">
          <path
             d="M 25.342061,112.7048 V 90.122855 h 8.111511 c 2.905461,0 5.112991,0.532495 6.62259,1.597486 1.519939,1.064991 2.279909,2.61078 2.279909,4.637365 0,1.168388 -0.268833,2.166171 -0.806498,2.993349 -0.537666,0.827175 -1.328655,1.437225 -2.372966,1.830135 1.178728,0.31019 2.083453,0.88921 2.714176,1.73707 0.630723,0.84785 0.946085,1.88182 0.946085,3.10191 0,2.2127 -0.703101,3.8774 -2.109303,4.99409 -1.395863,1.10635 -3.468977,1.66986 -6.219342,1.69054 z m -5.211229,-9.60043 v 5.41285 h 14.222295 c 0.982273,0 1.737073,-0.22231 2.264399,-0.66692 0.527326,-0.45495 0.790989,-1.09084 0.790989,-1.90767 0,-1.88183 -0.935745,-2.82792 -2.807234,-2.83826 z m 0,-3.5672 h 13.493345 c 1.189068,-0.01034 2.036925,-0.227474 2.543571,-0.651403 0.506647,-0.423928 0.75997,-1.049481 0.75997,-1.876659 0,-0.951254 -0.274003,-1.633675 -0.822008,-2.047264 -0.548005,-0.423929 -1.432051,-0.635893 -2.652138,-0.635893 h -13.32274 z"
             style="font-style:normal;font-variant:normal;font-weight:900;font-stretch:normal;font-size:31.76362038px;font-family:Roboto;-inkscape-font-specification:'Roboto Heavy';font-variant-ligatures:normal;font-variant-caps:normal;font-variant-numeric:normal;font-feature-settings:normal;text-align:start;writing-mode:lr-tb;text-anchor:start;fill:#ffffff;fill-opacity:1;stroke-width:0.79409355"
             id="path4677"
             inkscape:connector-curvature="0"
             sodipodi:nodetypes="ccscscccscccccscscccccscscc" />
        </g>
      </g>
    </g>
  </g>
</svg>
